<?xml version="1.0" encoding="UTF-8"?>
<svg xmlns="http://www.w3.org/2000/svg" xmlns:xlink="http://www.w3.org/1999/xlink" width="55px" height="45px" viewBox="0 0 55 45" version="1.1">
<g id="surface1">
<path style=" stroke:none;fill-rule:nonzero;fill:rgb(30.588235%,47.058824%,58.823529%);fill-opacity:1;" d="M 18.933594 24.042969 C 18.933594 24.042969 16.6875 24.695312 20.496094 24.882812 C 25.09375 25.164062 27.527344 25.117188 32.605469 24.648438 C 32.605469 24.648438 33.972656 25.070312 35.828125 25.398438 C 24.398438 27.734375 9.945312 25.257812 18.933594 24.042969 Z M 17.46875 21.003906 C 17.46875 21.003906 15.023438 21.890625 18.835938 22.078125 C 23.8125 22.3125 27.722656 22.359375 34.460938 21.703125 C 34.460938 21.703125 35.339844 22.171875 36.804688 22.40625 C 23.035156 24.371094 7.601562 22.59375 17.46875 21.003906 Z M 44.421875 26.332031 C 44.421875 26.332031 46.082031 26.988281 42.566406 27.5 C 36.023438 28.4375 15.121094 28.71875 9.261719 27.5 C 7.214844 27.082031 11.117188 26.472656 12.386719 26.378906 C 13.65625 26.238281 14.339844 26.238281 14.339844 26.238281 C 12.09375 25.492188 -0.601562 27.78125 7.894531 28.441406 C 31.238281 30.265625 50.476562 27.648438 44.421875 26.335938 Z M 20.007812 17.824219 C 20.007812 17.824219 9.359375 19.039062 16.195312 19.460938 C 19.125 19.644531 24.886719 19.597656 30.261719 19.414062 C 34.65625 19.226562 39.058594 18.851562 39.058594 18.851562 C 39.058594 18.851562 37.496094 19.179688 36.421875 19.503906 C 25.574219 20.863281 4.769531 20.253906 10.726562 18.851562 C 15.808594 17.683594 20.007812 17.824219 20.007812 17.824219 Z M 39.050781 22.917969 C 49.988281 20.207031 44.910156 17.589844 41.394531 17.917969 C 40.515625 18.011719 40.125 18.101562 40.125 18.101562 C 40.125 18.101562 40.417969 17.824219 41.101562 17.730469 C 48.035156 16.5625 53.503906 21.238281 38.855469 23.058594 C 38.855469 23.058594 38.953125 23.011719 39.050781 22.917969 Z M 21.078125 30.304688 C 31.628906 30.632812 47.742188 30.121094 48.132812 27.734375 C 48.132812 27.734375 47.355469 28.667969 39.441406 29.371094 C 30.457031 30.164062 19.320312 30.070312 12.777344 29.558594 C 12.777344 29.558594 14.144531 30.117188 21.082031 30.304688 Z M 21.078125 30.304688 "/>
<path style=" stroke:none;fill-rule:nonzero;fill:rgb(96.078431%,50.980392%,9.803922%);fill-opacity:1;" d="M 32.398438 2.394531 C 32.398438 2.394531 38.453125 5.339844 26.636719 9.78125 C 17.164062 13.378906 24.488281 15.4375 26.636719 17.773438 C 21.070312 15.390625 17.066406 13.285156 19.800781 11.324219 C 23.816406 8.425781 34.851562 7.023438 32.398438 2.394531 Z M 29.273438 15.8125 C 32.105469 17.355469 28.496094 18.757812 28.496094 18.757812 C 28.496094 18.757812 35.722656 16.980469 32.402344 14.785156 C 29.375 12.679688 27.03125 11.652344 39.726562 8.144531 C 39.726562 8.144531 19.703125 10.527344 29.277344 15.8125 Z M 29.273438 15.8125 "/>
<path style=" stroke:none;fill-rule:nonzero;fill:rgb(30.588235%,47.058824%,58.823529%);fill-opacity:1;" d="M 24.234375 40.316406 L 24.234375 35.734375 C 24.234375 34.566406 22.867188 33.769531 19.449219 33.769531 C 17.496094 33.769531 15.835938 34.003906 14.367188 34.285156 L 14.855469 35.125 C 15.929688 34.941406 17.300781 34.753906 18.765625 34.753906 C 20.621094 34.753906 21.5 35.125 21.5 35.875 L 21.5 36.484375 L 20.523438 36.484375 C 15.835938 36.484375 13.683594 37.324219 13.683594 38.683594 C 13.683594 39.808594 15.148438 40.460938 17.785156 40.460938 C 19.445312 40.460938 20.71875 40.085938 21.890625 39.621094 L 22.085938 40.320312 L 24.234375 40.320312 Z M 21.5 38.820312 C 20.523438 39.242188 19.449219 39.472656 18.472656 39.472656 C 17.203125 39.472656 16.421875 39.101562 16.421875 38.445312 C 16.421875 37.789062 17.203125 37.324219 20.328125 37.324219 L 21.5 37.324219 Z M 33.414062 40.316406 L 29.996094 40.316406 L 25.894531 33.910156 L 28.824219 33.910156 L 31.363281 37.835938 L 31.949219 39.007812 C 33.222656 37.324219 34.195312 35.59375 34.589844 33.910156 L 37.519531 33.910156 C 36.738281 36.015625 35.367188 38.304688 33.414062 40.316406 Z M 49.238281 40.316406 L 49.238281 35.734375 C 49.238281 34.566406 47.871094 33.769531 44.449219 33.769531 C 42.496094 33.769531 40.835938 34.003906 39.371094 34.285156 L 39.761719 35.125 C 40.933594 34.941406 42.300781 34.753906 43.765625 34.753906 C 45.621094 34.753906 46.5 35.125 46.5 35.875 L 46.5 36.484375 L 45.523438 36.484375 C 40.835938 36.484375 38.6875 37.324219 38.6875 38.683594 C 38.6875 39.808594 40.054688 40.460938 42.691406 40.460938 C 44.449219 40.460938 45.71875 40.085938 46.890625 39.621094 L 47.085938 40.320312 L 49.234375 40.320312 Z M 46.503906 38.820312 C 45.523438 39.242188 44.453125 39.472656 43.472656 39.472656 C 42.203125 39.472656 41.425781 39.101562 41.425781 38.445312 C 41.425781 37.789062 42.203125 37.324219 45.332031 37.324219 L 46.503906 37.324219 Z M 10.660156 41.390625 C 9.878906 41.953125 8.707031 42.371094 7.242188 42.605469 L 5.972656 41.859375 C 6.949219 41.578125 7.925781 41.15625 8.316406 40.78125 C 8.707031 40.457031 8.804688 39.988281 8.804688 38.914062 L 8.804688 31.621094 L 11.734375 31.621094 L 11.734375 38.820312 C 11.734375 40.269531 11.441406 40.832031 10.660156 41.390625 Z M 10.660156 41.390625 "/>
</g>
</svg>
