<?xml version="1.0" encoding="UTF-8"?>
<svg xmlns="http://www.w3.org/2000/svg" xmlns:xlink="http://www.w3.org/1999/xlink" width="75px" height="40px" viewBox="0 0 75 40" version="1.1">
<g id="surface1">
<rect x="0" y="0" width="75" height="40" style="fill:rgb(96.862745%,28.627451%,72.156863%);fill-opacity:1;stroke:none;"/>
<path style=" stroke:none;fill-rule:evenodd;fill:rgb(100%,100%,100%);fill-opacity:1;" d="M 62.40625 21.410156 L 62.203125 21.230469 L 63.152344 13.929688 L 63.28125 12.9375 L 62.539062 12.332031 C 61.773438 11.707031 60.816406 11.613281 60.3125 11.613281 C 58.589844 11.613281 57.601562 12.59375 57.367188 14.535156 L 57.28125 15.222656 C 56.554688 15.207031 55.835938 15.359375 55.171875 15.671875 C 55.296875 15.324219 55.371094 14.941406 55.371094 14.53125 C 55.371094 12.835938 54.230469 11.652344 52.601562 11.652344 C 50.859375 11.652344 49.542969 12.980469 49.542969 14.75 C 49.542969 15.019531 49.570312 15.28125 49.628906 15.523438 C 49.429688 15.59375 49.234375 15.691406 49.058594 15.808594 C 48.457031 15.414062 47.722656 15.207031 46.867188 15.207031 C 46.210938 15.207031 45.664062 15.332031 45.207031 15.535156 C 44.695312 15.285156 44.121094 15.238281 43.632812 15.238281 C 42.679688 15.238281 42 15.347656 41.453125 15.574219 C 40.773438 15.25 40.050781 15.207031 39.71875 15.207031 C 38.710938 15.207031 38.066406 15.566406 37.648438 16.046875 C 36.988281 15.328125 36.046875 15.238281 35.378906 15.238281 C 34.351562 15.238281 33.636719 15.363281 33.070312 15.632812 C 32.550781 15.363281 31.851562 15.1875 30.898438 15.1875 C 29.632812 15.1875 28.53125 15.503906 27.628906 16.078125 C 27.1875 15.589844 26.453125 15.207031 25.226562 15.207031 C 24.835938 15.207031 24.503906 15.242188 24.199219 15.328125 L 24.375 13.921875 L 24.496094 12.9375 L 23.761719 12.332031 C 22.996094 11.707031 22.039062 11.613281 21.535156 11.613281 C 19.8125 11.613281 18.820312 12.59375 18.589844 14.535156 L 18.425781 15.847656 C 17.664062 15.40625 16.714844 15.167969 15.589844 15.167969 C 12.121094 15.167969 9.792969 17.667969 9.792969 21.386719 C 9.792969 24.480469 11.601562 26.328125 14.632812 26.328125 C 15.980469 26.328125 17.152344 25.988281 18.085938 25.359375 C 18.554688 25.953125 19.296875 26.292969 20.21875 26.292969 C 20.988281 26.292969 21.550781 26.210938 21.988281 26.039062 L 22.636719 25.785156 C 23.039062 26.097656 23.558594 26.292969 24.269531 26.292969 C 25.550781 26.292969 26.410156 26.007812 26.984375 25.609375 C 27.734375 26.082031 28.699219 26.328125 29.855469 26.328125 C 31.132812 26.328125 32.160156 25.972656 32.921875 25.425781 C 33.480469 25.949219 34.292969 26.292969 35.425781 26.292969 C 36.210938 26.292969 36.890625 26.164062 37.484375 25.902344 C 38.121094 26.308594 38.828125 26.308594 39.101562 26.308594 C 39.359375 26.308594 39.59375 26.296875 39.816406 26.28125 C 39.765625 26.640625 39.734375 26.917969 39.734375 27.167969 C 39.734375 28.527344 40.578125 29.816406 42.453125 29.902344 C 43.863281 29.964844 45.132812 29.289062 45.132812 29.289062 L 45.261719 28.265625 L 45.523438 26.164062 C 46.710938 26.050781 47.746094 25.648438 48.578125 25.011719 C 49.03125 25.753906 49.851562 26.292969 51.097656 26.292969 C 52.195312 26.292969 52.996094 26.140625 53.613281 25.820312 C 53.683594 25.785156 53.738281 25.742188 53.800781 25.703125 C 54.425781 26.085938 55.195312 26.292969 56.105469 26.292969 C 56.757812 26.292969 57.355469 26.164062 57.882812 25.929688 C 58.292969 26.171875 58.792969 26.308594 59.355469 26.308594 C 62.972656 26.308594 63.253906 24.046875 63.253906 23.355469 C 63.253906 22.359375 62.796875 21.75 62.40625 21.410156 Z M 62.40625 21.410156 "/>
<path style=" stroke:none;fill-rule:evenodd;fill:rgb(25.098039%,45.098039%,81.568627%);fill-opacity:1;" d="M 56.015625 21.386719 C 56.015625 19.582031 56.703125 18.632812 57.746094 18.632812 C 58.015625 18.632812 58.238281 18.652344 58.460938 18.761719 L 58.015625 22.40625 C 57.78125 22.683594 57.4375 22.828125 57.058594 22.828125 C 56.414062 22.828125 56.015625 22.515625 56.015625 21.386719 Z M 59.371094 24.597656 C 60.789062 24.597656 61.660156 24.195312 61.660156 23.355469 C 61.660156 23.082031 61.589844 22.902344 61.402344 22.734375 C 61.214844 22.792969 60.941406 22.8125 60.789062 22.8125 C 60.53125 22.8125 60.480469 22.683594 60.480469 22.5 C 60.480469 22.28125 60.496094 21.953125 60.582031 21.316406 L 61.574219 13.691406 C 61.285156 13.457031 60.804688 13.328125 60.324219 13.328125 C 59.46875 13.328125 59.113281 13.601562 58.976562 14.75 L 58.648438 17.285156 C 58.359375 17.046875 57.898438 16.9375 57.164062 16.9375 C 55.199219 16.9375 53.609375 18.578125 53.609375 21.734375 C 53.609375 23.832031 54.53125 24.578125 56.121094 24.578125 C 57.027344 24.578125 57.898438 24.230469 58.308594 23.246094 C 58.292969 23.339844 58.273438 23.503906 58.273438 23.539062 C 58.273438 24.304688 58.71875 24.597656 59.371094 24.597656 Z M 51.109375 24.578125 C 52.769531 24.578125 53.488281 24.195312 53.488281 23.339844 C 53.488281 23.101562 53.398438 22.882812 53.210938 22.734375 C 53.007812 22.792969 52.734375 22.8125 52.578125 22.8125 C 52.375 22.8125 52.324219 22.683594 52.324219 22.554688 C 52.324219 22.316406 52.441406 21.734375 52.5625 20.894531 L 52.957031 18.050781 C 53.058594 17.300781 52.820312 16.953125 51.691406 16.953125 C 50.171875 16.953125 49.503906 17.246094 49.503906 18.050781 C 49.503906 18.289062 49.539062 18.523438 49.675781 18.707031 L 50.460938 18.6875 L 49.878906 22.246094 C 49.828125 22.625 49.777344 23.136719 49.777344 23.449219 C 49.777344 24.230469 50.273438 24.578125 51.109375 24.578125 Z M 52.613281 13.363281 C 51.710938 13.363281 51.164062 13.964844 51.164062 14.75 C 51.164062 15.644531 51.726562 15.878906 52.355469 15.878906 C 53.246094 15.878906 53.777344 15.332031 53.777344 14.53125 C 53.777344 13.855469 53.417969 13.363281 52.613281 13.363281 Z M 45.851562 18.667969 C 46.570312 18.667969 46.878906 19.105469 46.878906 20.257812 C 46.878906 22.078125 46.058594 22.882812 44.980469 22.882812 C 44.691406 22.882812 44.484375 22.863281 44.316406 22.8125 L 44.792969 19.179688 C 45.015625 18.871094 45.40625 18.667969 45.851562 18.667969 Z M 44.808594 24.488281 C 47.527344 24.488281 49.273438 22.8125 49.273438 19.945312 C 49.273438 17.976562 48.539062 16.921875 46.878906 16.921875 C 45.988281 16.921875 45.183594 17.191406 44.726562 18.46875 L 44.828125 17.792969 C 44.914062 17.191406 44.636719 16.953125 43.648438 16.953125 C 42.125 16.953125 41.460938 17.246094 41.460938 18.050781 C 41.460938 18.289062 41.492188 18.523438 41.613281 18.707031 L 42.398438 18.6875 L 41.476562 26.128906 C 41.40625 26.621094 41.355469 26.96875 41.355469 27.167969 C 41.355469 27.863281 41.714844 28.1875 42.46875 28.1875 C 42.824219 28.1875 43.359375 28.171875 43.679688 28.042969 L 44.125 24.46875 C 44.28125 24.488281 44.621094 24.488281 44.808594 24.488281 Z M 39.117188 24.597656 C 40.773438 24.597656 41.5625 24.214844 41.5625 23.355469 C 41.5625 23.121094 41.476562 22.882812 41.289062 22.734375 C 41.082031 22.792969 40.84375 22.8125 40.691406 22.8125 C 40.484375 22.8125 40.417969 22.699219 40.417969 22.574219 C 40.417969 22.261719 40.46875 21.933594 40.503906 21.625 L 41.050781 17.285156 C 40.757812 17.046875 40.210938 16.917969 39.730469 16.917969 C 38.878906 16.917969 38.621094 17.210938 38.484375 18.359375 L 38.023438 22.007812 C 37.695312 22.574219 37.183594 22.808594 36.707031 22.808594 C 36.246094 22.808594 36.058594 22.683594 36.058594 22.316406 C 36.058594 22.007812 36.140625 21.40625 36.226562 20.894531 L 36.65625 18.050781 C 36.773438 17.300781 36.515625 16.953125 35.390625 16.953125 C 33.871094 16.953125 33.203125 17.246094 33.203125 18.050781 C 33.203125 18.289062 33.238281 18.523438 33.371094 18.707031 L 34.160156 18.6875 L 33.730469 21.167969 C 33.578125 22.027344 33.542969 22.355469 33.542969 22.863281 C 33.542969 24.050781 34.226562 24.578125 35.441406 24.578125 C 36.859375 24.578125 37.59375 24.066406 38.089844 23.101562 L 38.039062 23.464844 C 37.921875 24.324219 38.28125 24.597656 39.117188 24.597656 Z M 32.585938 18.90625 C 32.808594 18.726562 32.929688 18.507812 32.929688 18.121094 C 32.929688 17.429688 32.539062 16.902344 30.914062 16.902344 C 28.328125 16.902344 26.691406 18.523438 26.691406 21.40625 C 26.691406 23.71875 27.800781 24.617188 29.871094 24.617188 C 31.800781 24.617188 32.585938 24.066406 32.585938 23.136719 C 32.585938 22.863281 32.46875 22.5 32.230469 22.371094 C 31.578125 22.625 30.980469 22.753906 30.46875 22.753906 C 29.5625 22.753906 29.21875 22.316406 29.21875 21.113281 C 29.21875 19.472656 29.921875 18.707031 31.152344 18.707031 C 31.785156 18.707031 32.195312 18.777344 32.585938 18.90625 Z M 32.585938 18.90625 "/>
<path style=" stroke:none;fill-rule:evenodd;fill:rgb(3.529412%,29.019608%,63.921569%);fill-opacity:1;" d="M 24.28125 24.578125 C 25.703125 24.578125 26.503906 24.214844 26.503906 23.355469 C 26.503906 23.121094 26.4375 22.863281 26.265625 22.734375 C 26.0625 22.792969 25.804688 22.8125 25.652344 22.8125 C 25.460938 22.8125 25.378906 22.683594 25.292969 22.535156 L 24.128906 20.292969 C 25.136719 18.816406 25.34375 18.726562 25.703125 18.726562 C 25.90625 18.726562 26.164062 18.726562 26.421875 18.746094 C 26.59375 18.542969 26.695312 18.289062 26.695312 17.902344 C 26.695312 17.25 26.316406 16.921875 25.238281 16.921875 C 24.214844 16.921875 24.027344 17.101562 21.992188 20.113281 L 22.796875 13.695312 C 22.503906 13.457031 22.027344 13.328125 21.546875 13.328125 C 20.691406 13.328125 20.335938 13.601562 20.199219 14.75 L 19.238281 22.515625 C 19.171875 23.011719 19.136719 23.355469 19.136719 23.558594 C 19.136719 24.25 19.480469 24.578125 20.234375 24.578125 C 20.589844 24.578125 21.121094 24.558594 21.445312 24.433594 L 21.871094 21.003906 L 23.015625 23.503906 C 23.378906 24.324219 23.617188 24.578125 24.28125 24.578125 Z M 15.464844 18.652344 C 16.355469 18.652344 16.628906 19.179688 16.628906 20.257812 C 16.628906 21.914062 15.910156 22.882812 14.96875 22.882812 C 14.132812 22.882812 13.84375 22.390625 13.84375 21.296875 C 13.84375 19.78125 14.421875 18.652344 15.464844 18.652344 Z M 14.644531 24.617188 C 17.378906 24.617188 18.953125 22.902344 18.953125 20.148438 C 18.953125 18.195312 18.078125 16.882812 15.601562 16.882812 C 12.953125 16.882812 11.414062 18.6875 11.414062 21.386719 C 11.414062 23.703125 12.695312 24.617188 14.644531 24.617188 Z M 14.644531 24.617188 "/>
</g>
</svg>
