<?xml version="1.0" encoding="UTF-8"?>
<svg xmlns="http://www.w3.org/2000/svg" xmlns:xlink="http://www.w3.org/1999/xlink" width="75px" height="55px" viewBox="0 0 75 55" version="1.1">
<g id="surface1">
<rect x="0" y="0" width="75" height="55" style="fill:rgb(96.862745%,28.627451%,72.156863%);fill-opacity:1;stroke:none;"/>
<path style=" stroke:none;fill-rule:evenodd;fill:rgb(100%,100%,100%);fill-opacity:1;" d="M 62.40625 29.441406 L 62.203125 29.195312 L 63.152344 19.152344 L 63.28125 17.789062 L 62.539062 16.953125 C 61.773438 16.097656 60.816406 15.96875 60.3125 15.96875 C 58.589844 15.96875 57.601562 17.316406 57.367188 19.984375 L 57.28125 20.933594 C 56.554688 20.910156 55.835938 21.121094 55.171875 21.550781 C 55.296875 21.074219 55.371094 20.542969 55.371094 19.980469 C 55.371094 17.648438 54.230469 16.019531 52.601562 16.019531 C 50.859375 16.019531 49.542969 17.847656 49.542969 20.28125 C 49.542969 20.65625 49.570312 21.011719 49.628906 21.34375 C 49.429688 21.441406 49.234375 21.574219 49.058594 21.734375 C 48.457031 21.195312 47.722656 20.90625 46.867188 20.90625 C 46.210938 20.90625 45.664062 21.078125 45.207031 21.363281 C 44.695312 21.015625 44.121094 20.953125 43.632812 20.953125 C 42.679688 20.953125 42 21.101562 41.453125 21.417969 C 40.773438 20.96875 40.050781 20.90625 39.71875 20.90625 C 38.710938 20.90625 38.066406 21.40625 37.648438 22.066406 C 36.988281 21.074219 36.046875 20.953125 35.378906 20.953125 C 34.351562 20.953125 33.636719 21.125 33.070312 21.492188 C 32.550781 21.125 31.851562 20.882812 30.898438 20.882812 C 29.632812 20.882812 28.53125 21.316406 27.628906 22.105469 C 27.1875 21.433594 26.453125 20.90625 25.226562 20.90625 C 24.835938 20.90625 24.503906 20.957031 24.199219 21.074219 L 24.375 19.140625 L 24.496094 17.785156 L 23.761719 16.953125 C 22.996094 16.097656 22.039062 15.96875 21.535156 15.96875 C 19.8125 15.96875 18.820312 17.316406 18.589844 19.984375 L 18.425781 21.789062 C 17.664062 21.183594 16.714844 20.855469 15.589844 20.855469 C 12.121094 20.855469 9.792969 24.292969 9.792969 29.40625 C 9.792969 33.660156 11.601562 36.199219 14.632812 36.199219 C 15.980469 36.199219 17.152344 35.730469 18.085938 34.871094 C 18.554688 35.683594 19.296875 36.152344 20.21875 36.152344 C 20.988281 36.152344 21.550781 36.039062 21.988281 35.804688 L 22.636719 35.457031 C 23.039062 35.882812 23.558594 36.152344 24.269531 36.152344 C 25.550781 36.152344 26.410156 35.761719 26.984375 35.210938 C 27.734375 35.863281 28.699219 36.199219 29.855469 36.199219 C 31.132812 36.199219 32.160156 35.714844 32.921875 34.960938 C 33.480469 35.679688 34.292969 36.152344 35.425781 36.152344 C 36.210938 36.152344 36.890625 35.972656 37.484375 35.613281 C 38.121094 36.175781 38.828125 36.175781 39.101562 36.175781 C 39.359375 36.175781 39.59375 36.160156 39.816406 36.132812 C 39.765625 36.632812 39.734375 37.011719 39.734375 37.355469 C 39.734375 39.226562 40.578125 40.996094 42.453125 41.113281 C 43.863281 41.203125 45.132812 40.273438 45.132812 40.273438 L 45.261719 38.867188 L 45.523438 35.976562 C 46.710938 35.820312 47.746094 35.265625 48.578125 34.394531 C 49.03125 35.414062 49.851562 36.152344 51.097656 36.152344 C 52.195312 36.152344 52.996094 35.945312 53.613281 35.5 C 53.683594 35.453125 53.738281 35.394531 53.800781 35.34375 C 54.425781 35.871094 55.195312 36.152344 56.105469 36.152344 C 56.757812 36.152344 57.355469 35.976562 57.882812 35.652344 C 58.292969 35.988281 58.792969 36.175781 59.355469 36.175781 C 62.972656 36.175781 63.253906 33.066406 63.253906 32.117188 C 63.253906 30.746094 62.796875 29.90625 62.40625 29.441406 Z M 62.40625 29.441406 "/>
<path style=" stroke:none;fill-rule:evenodd;fill:rgb(25.098039%,45.098039%,81.568627%);fill-opacity:1;" d="M 56.015625 29.40625 C 56.015625 26.925781 56.703125 25.621094 57.746094 25.621094 C 58.015625 25.621094 58.238281 25.644531 58.460938 25.796875 L 58.015625 30.8125 C 57.78125 31.1875 57.4375 31.386719 57.058594 31.386719 C 56.414062 31.386719 56.015625 30.960938 56.015625 29.40625 Z M 59.371094 33.820312 C 60.789062 33.820312 61.660156 33.269531 61.660156 32.117188 C 61.660156 31.738281 61.589844 31.488281 61.402344 31.261719 C 61.214844 31.339844 60.941406 31.363281 60.789062 31.363281 C 60.53125 31.363281 60.480469 31.1875 60.480469 30.9375 C 60.480469 30.636719 60.496094 30.183594 60.582031 29.308594 L 61.574219 18.828125 C 61.285156 18.503906 60.804688 18.324219 60.324219 18.324219 C 59.46875 18.324219 59.113281 18.699219 58.976562 20.28125 L 58.648438 23.765625 C 58.359375 23.441406 57.898438 23.289062 57.164062 23.289062 C 55.199219 23.289062 53.609375 25.546875 53.609375 29.882812 C 53.609375 32.769531 54.53125 33.796875 56.121094 33.796875 C 57.027344 33.796875 57.898438 33.320312 58.308594 31.964844 C 58.292969 32.089844 58.273438 32.320312 58.273438 32.367188 C 58.273438 33.417969 58.71875 33.820312 59.371094 33.820312 Z M 51.109375 33.796875 C 52.769531 33.796875 53.488281 33.269531 53.488281 32.089844 C 53.488281 31.765625 53.398438 31.464844 53.210938 31.261719 C 53.007812 31.339844 52.734375 31.363281 52.578125 31.363281 C 52.375 31.363281 52.324219 31.1875 52.324219 31.011719 C 52.324219 30.6875 52.441406 29.882812 52.5625 28.730469 L 52.957031 24.820312 C 53.058594 23.789062 52.820312 23.3125 51.691406 23.3125 C 50.171875 23.3125 49.503906 23.714844 49.503906 24.820312 C 49.503906 25.144531 49.539062 25.46875 49.675781 25.722656 L 50.460938 25.695312 L 49.878906 30.585938 C 49.828125 31.113281 49.777344 31.816406 49.777344 32.242188 C 49.777344 33.320312 50.273438 33.796875 51.109375 33.796875 Z M 52.613281 18.375 C 51.710938 18.375 51.164062 19.203125 51.164062 20.28125 C 51.164062 21.507812 51.726562 21.835938 52.355469 21.835938 C 53.246094 21.835938 53.777344 21.082031 53.777344 19.980469 C 53.777344 19.050781 53.417969 18.375 52.613281 18.375 Z M 45.851562 25.671875 C 46.570312 25.671875 46.878906 26.273438 46.878906 27.851562 C 46.878906 30.359375 46.058594 31.464844 44.980469 31.464844 C 44.691406 31.464844 44.484375 31.4375 44.316406 31.363281 L 44.792969 26.375 C 45.015625 25.945312 45.40625 25.671875 45.851562 25.671875 Z M 44.808594 33.671875 C 47.527344 33.671875 49.273438 31.363281 49.273438 27.425781 C 49.273438 24.71875 48.539062 23.265625 46.878906 23.265625 C 45.988281 23.265625 45.183594 23.640625 44.726562 25.394531 L 44.828125 24.46875 C 44.914062 23.640625 44.636719 23.3125 43.648438 23.3125 C 42.125 23.3125 41.460938 23.714844 41.460938 24.820312 C 41.460938 25.144531 41.492188 25.46875 41.613281 25.722656 L 42.398438 25.695312 L 41.476562 35.925781 C 41.40625 36.605469 41.355469 37.082031 41.355469 37.355469 C 41.355469 38.308594 41.714844 38.761719 42.46875 38.761719 C 42.824219 38.761719 43.359375 38.734375 43.679688 38.558594 L 44.125 33.644531 C 44.28125 33.671875 44.621094 33.671875 44.808594 33.671875 Z M 39.117188 33.820312 C 40.773438 33.820312 41.5625 33.292969 41.5625 32.117188 C 41.5625 31.789062 41.476562 31.464844 41.289062 31.261719 C 41.082031 31.339844 40.84375 31.363281 40.691406 31.363281 C 40.484375 31.363281 40.417969 31.210938 40.417969 31.039062 C 40.417969 30.609375 40.46875 30.160156 40.503906 29.734375 L 41.050781 23.765625 C 40.757812 23.441406 40.210938 23.265625 39.730469 23.265625 C 38.878906 23.265625 38.621094 23.664062 38.484375 25.246094 L 38.023438 30.261719 C 37.695312 31.039062 37.183594 31.363281 36.707031 31.363281 C 36.246094 31.363281 36.058594 31.1875 36.058594 30.6875 C 36.058594 30.261719 36.140625 29.429688 36.226562 28.730469 L 36.65625 24.820312 C 36.773438 23.789062 36.515625 23.3125 35.390625 23.3125 C 33.871094 23.3125 33.203125 23.714844 33.203125 24.820312 C 33.203125 25.144531 33.238281 25.46875 33.371094 25.722656 L 34.160156 25.695312 L 33.730469 29.105469 C 33.578125 30.285156 33.542969 30.738281 33.542969 31.4375 C 33.542969 33.070312 34.226562 33.796875 35.441406 33.796875 C 36.859375 33.796875 37.59375 33.089844 38.089844 31.765625 L 38.039062 32.265625 C 37.921875 33.445312 38.28125 33.820312 39.117188 33.820312 Z M 32.585938 25.996094 C 32.808594 25.746094 32.929688 25.445312 32.929688 24.917969 C 32.929688 23.964844 32.539062 23.238281 30.914062 23.238281 C 28.328125 23.238281 26.691406 25.46875 26.691406 29.433594 C 26.691406 32.617188 27.800781 33.847656 29.871094 33.847656 C 31.800781 33.847656 32.585938 33.089844 32.585938 31.816406 C 32.585938 31.4375 32.46875 30.9375 32.230469 30.761719 C 31.578125 31.113281 30.980469 31.289062 30.46875 31.289062 C 29.5625 31.289062 29.21875 30.6875 29.21875 29.03125 C 29.21875 26.773438 29.921875 25.722656 31.152344 25.722656 C 31.785156 25.722656 32.195312 25.820312 32.585938 25.996094 Z M 32.585938 25.996094 "/>
<path style=" stroke:none;fill-rule:evenodd;fill:rgb(3.529412%,29.019608%,63.921569%);fill-opacity:1;" d="M 24.28125 33.796875 C 25.703125 33.796875 26.503906 33.292969 26.503906 32.117188 C 26.503906 31.789062 26.4375 31.4375 26.265625 31.261719 C 26.0625 31.339844 25.804688 31.363281 25.652344 31.363281 C 25.460938 31.363281 25.378906 31.1875 25.292969 30.988281 L 24.128906 27.902344 C 25.136719 25.871094 25.34375 25.746094 25.703125 25.746094 C 25.90625 25.746094 26.164062 25.746094 26.421875 25.773438 C 26.59375 25.496094 26.695312 25.144531 26.695312 24.617188 C 26.695312 23.714844 26.316406 23.265625 25.238281 23.265625 C 24.214844 23.265625 24.027344 23.515625 21.992188 27.65625 L 22.796875 18.828125 C 22.503906 18.503906 22.027344 18.328125 21.546875 18.328125 C 20.691406 18.328125 20.335938 18.699219 20.199219 20.28125 L 19.238281 30.960938 C 19.171875 31.640625 19.136719 32.117188 19.136719 32.390625 C 19.136719 33.34375 19.480469 33.796875 20.234375 33.796875 C 20.589844 33.796875 21.121094 33.769531 21.445312 33.59375 L 21.871094 28.878906 L 23.015625 32.320312 C 23.378906 33.445312 23.617188 33.796875 24.28125 33.796875 Z M 15.464844 25.644531 C 16.355469 25.644531 16.628906 26.375 16.628906 27.851562 C 16.628906 30.132812 15.910156 31.464844 14.96875 31.464844 C 14.132812 31.464844 13.84375 30.785156 13.84375 29.28125 C 13.84375 27.199219 14.421875 25.644531 15.464844 25.644531 Z M 14.644531 33.847656 C 17.378906 33.847656 18.953125 31.488281 18.953125 27.703125 C 18.953125 25.019531 18.078125 23.214844 15.601562 23.214844 C 12.953125 23.214844 11.414062 25.695312 11.414062 29.40625 C 11.414062 32.589844 12.695312 33.847656 14.644531 33.847656 Z M 14.644531 33.847656 "/>
</g>
</svg>
