<?xml version="1.0" standalone="no"?>
<!DOCTYPE svg PUBLIC "-//W3C//DTD SVG 20010904//EN"
 "http://www.w3.org/TR/2001/REC-SVG-20010904/DTD/svg10.dtd">
<svg version="1.0" xmlns="http://www.w3.org/2000/svg"
 width="945.000000pt" height="525.000000pt" viewBox="0 0 945.000000 525.000000"
 preserveAspectRatio="xMidYMid meet">

<g transform="translate(0.000000,525.000000) scale(0.100000,-0.100000)"
fill="#000000" stroke="none">
<path d="M2014 4045 c-128 -28 -229 -102 -287 -212 -46 -88 -62 -148 -83 -310
-10 -73 -22 -133 -26 -133 -5 0 -36 11 -71 26 -102 41 -214 64 -347 71 -277
13 -524 -61 -713 -214 -172 -139 -292 -359 -327 -602 -18 -118 -8 -357 18
-436 74 -228 177 -354 367 -445 143 -69 223 -85 430 -85 131 0 191 4 260 19
91 20 232 71 293 107 l34 19 34 -29 c95 -84 191 -114 361 -113 136 0 204 11
311 49 l73 26 37 -21 c73 -40 149 -55 277 -54 144 1 278 27 369 72 l62 31 67
-31 c128 -58 221 -74 422 -74 212 0 294 16 440 88 l90 45 54 -36 c151 -101
417 -126 648 -63 l73 20 77 -27 c67 -23 95 -27 200 -27 l123 -1 -6 -91 c-16
-228 91 -393 299 -460 69 -22 100 -27 192 -27 141 0 292 32 400 84 l29 14 33
244 c17 134 35 247 40 251 4 3 44 11 88 18 127 17 277 74 403 153 20 12 26 9
78 -43 109 -109 206 -141 419 -139 158 1 293 24 371 63 l49 24 60 -27 c145
-65 382 -82 540 -38 98 27 105 27 180 -2 52 -20 79 -23 195 -23 224 0 387 48
496 147 99 90 144 191 144 327 0 123 -35 203 -127 293 l-49 47 37 263 c20 144
49 348 63 452 15 105 38 273 51 375 14 102 27 197 30 212 4 24 -5 34 -84 92
-107 80 -175 112 -276 131 -147 28 -321 9 -414 -46 -126 -76 -204 -208 -231
-394 -19 -133 -10 -121 -103 -128 -45 -3 -122 -18 -171 -32 -49 -14 -90 -24
-92 -22 -2 1 3 41 12 87 14 83 13 107 -8 205 -33 153 -156 279 -313 320 -76
19 -214 19 -290 0 -140 -37 -266 -137 -323 -256 -43 -90 -56 -157 -49 -260 l6
-87 -47 -20 c-44 -19 -49 -19 -82 -5 -137 62 -167 68 -340 68 -145 -1 -172 -4
-223 -23 l-59 -22 -61 21 c-116 39 -360 35 -523 -8 -60 -16 -63 -16 -130 7
-84 28 -269 39 -357 21 -68 -15 -164 -61 -197 -96 l-23 -25 -31 24 c-45 34
-114 67 -171 83 -124 34 -380 25 -516 -18 l-66 -21 -81 26 c-241 76 -556 49
-789 -67 l-61 -31 -34 26 c-109 83 -220 112 -413 106 l-141 -4 3 25 c2 15 12
92 23 173 11 82 20 154 20 162 0 22 -136 124 -215 162 -126 61 -291 80 -431
49z m309 -293 c54 -24 53 -18 32 -156 -8 -54 -26 -189 -40 -300 -14 -110 -37
-279 -50 -375 -14 -95 -25 -183 -24 -195 0 -20 1 -20 17 4 66 95 237 315 285
367 85 91 127 108 257 107 120 0 185 -22 217 -70 24 -37 24 -136 0 -181 l-18
-33 -80 0 c-50 0 -90 -5 -107 -14 -34 -18 -84 -71 -156 -165 l-56 -74 28 -51
c16 -28 64 -115 107 -192 49 -91 86 -146 100 -152 13 -6 48 -8 79 -5 64 7 79
-4 91 -64 19 -103 -68 -188 -216 -213 -90 -14 -214 -13 -252 4 -53 22 -84 69
-200 306 -60 124 -111 227 -113 229 -9 10 -13 -13 -38 -194 -40 -285 -46 -329
-51 -333 -23 -23 -249 -29 -298 -8 -98 42 -105 99 -53 477 44 330 79 590 116
879 41 321 53 364 117 405 56 37 220 35 306 -3z m6602 12 c84 -26 85 -27 70
-124 -7 -47 -20 -141 -30 -210 -9 -69 -31 -233 -50 -365 -108 -770 -109 -780
-71 -794 12 -5 50 -7 84 -4 59 6 60 5 76 -25 9 -17 16 -47 16 -66 0 -125 -129
-195 -364 -198 -134 -2 -196 38 -212 139 l-6 39 -61 -61 c-77 -77 -144 -105
-268 -112 -253 -16 -404 83 -450 292 -7 33 -13 112 -12 175 1 377 166 652 439
730 98 28 271 28 355 0 34 -12 63 -20 65 -18 1 2 15 93 29 203 38 295 59 360
128 397 51 27 174 28 262 2z m-1336 -15 c120 -67 105 -276 -24 -343 -59 -31
-184 -35 -247 -7 -53 23 -72 46 -88 113 -26 101 43 219 147 252 66 22 159 15
212 -15z m-6254 -554 c253 -53 378 -223 377 -510 -2 -319 -141 -548 -393 -648
-118 -47 -193 -60 -339 -61 -148 0 -218 13 -318 61 -182 89 -269 309 -228 578
51 336 224 517 561 588 50 11 275 6 340 -8z m2634 -10 c121 -37 172 -155 113
-257 -21 -37 -27 -38 -107 -21 -99 21 -265 14 -325 -13 -125 -57 -191 -211
-175 -409 14 -181 86 -231 292 -205 52 6 122 21 155 31 33 11 67 18 75 15 19
-8 53 -84 53 -121 0 -46 -33 -108 -76 -143 -94 -78 -343 -113 -550 -77 -263
46 -384 206 -384 506 0 236 68 411 211 544 94 87 206 138 379 169 58 10 286
-2 339 -19z m1446 0 c28 -8 56 -19 64 -24 17 -11 16 -21 -43 -456 -20 -143
-39 -296 -43 -339 -8 -99 0 -108 92 -99 63 6 63 5 79 -25 9 -17 16 -51 16 -75
0 -121 -134 -187 -385 -189 -174 -2 -214 27 -216 154 0 62 0 63 -17 38 -30
-46 -102 -110 -153 -136 -154 -77 -423 -70 -516 14 -17 16 -42 49 -55 73 -20
39 -23 57 -22 159 0 93 9 160 47 358 26 134 47 252 47 263 0 17 -7 19 -66 19
l-65 0 -16 37 c-19 46 -13 115 14 152 49 65 164 94 353 89 143 -4 180 -17 207
-73 18 -37 14 -69 -68 -561 -41 -249 -38 -275 32 -294 78 -21 182 12 241 78
37 41 37 41 88 437 26 196 48 311 66 347 17 33 52 57 97 69 43 11 161 3 222
-16z m1251 -6 c165 -62 241 -225 231 -494 -9 -221 -60 -348 -192 -480 -138
-140 -297 -200 -552 -212 l-133 -6 -4 -31 c-3 -17 -14 -101 -25 -186 -44 -349
-43 -340 -63 -351 -10 -5 -62 -13 -116 -16 -124 -7 -192 7 -227 48 -47 57 -47
67 30 634 18 138 43 324 55 415 11 91 25 190 30 220 5 30 13 87 16 127 l7 72
-69 3 -69 3 -12 50 c-24 97 18 169 118 200 70 22 306 32 367 16 71 -20 85 -41
80 -122 -3 -38 -4 -69 -3 -69 1 0 19 25 39 55 54 81 127 128 236 149 54 10
199 -4 256 -25z m788 5 c27 -9 54 -27 64 -41 27 -42 25 -57 -76 -718 -11 -66
-17 -127 -15 -136 6 -23 31 -28 102 -22 59 6 59 5 76 -27 22 -42 16 -120 -12
-158 -48 -68 -198 -107 -377 -100 -120 4 -170 26 -206 91 -21 36 -22 48 -17
141 3 56 22 193 42 306 51 291 65 373 65 388 0 8 -20 12 -66 12 l-65 0 -16 37
c-30 73 -3 156 65 196 77 45 340 64 436 31z"/>
<path d="M8257 2915 c-86 -30 -152 -120 -182 -247 -17 -75 -20 -231 -4 -294
28 -109 166 -148 285 -79 l40 24 32 238 c50 370 49 359 21 366 -41 11 -152 7
-192 -8z"/>
<path d="M1036 2916 c-74 -28 -145 -117 -172 -218 -22 -82 -29 -227 -14 -298
15 -73 39 -106 94 -131 133 -60 287 31 340 200 59 188 35 383 -53 435 -42 24
-144 31 -195 12z"/>
<path d="M6249 2917 c-57 -16 -108 -52 -114 -80 -9 -47 -75 -525 -75 -549 0
-18 7 -27 23 -32 41 -11 120 -6 181 11 50 14 71 27 117 72 82 83 104 152 104
331 0 121 -2 139 -23 177 -36 69 -120 96 -213 70z"/>
</g>
</svg>
