<?xml version="1.0" encoding="UTF-8"?>
<svg xmlns="http://www.w3.org/2000/svg" xmlns:xlink="http://www.w3.org/1999/xlink" width="70px" height="35px" viewBox="0 0 70 35" version="1.1">
<g id="surface1">
<rect x="0" y="0" width="70" height="35" style="fill:rgb(96.862745%,28.627451%,72.156863%);fill-opacity:1;stroke:none;"/>
<path style=" stroke:none;fill-rule:evenodd;fill:rgb(100%,100%,100%);fill-opacity:1;" d="M 58.246094 18.734375 L 58.054688 18.578125 L 58.941406 12.1875 L 59.0625 11.320312 L 58.367188 10.789062 C 57.65625 10.242188 56.761719 10.160156 56.292969 10.160156 C 54.683594 10.160156 53.761719 11.019531 53.542969 12.714844 L 53.460938 13.320312 C 52.785156 13.308594 52.113281 13.441406 51.496094 13.714844 C 51.609375 13.410156 51.679688 13.074219 51.679688 12.714844 C 51.679688 11.230469 50.613281 10.195312 49.09375 10.195312 C 47.46875 10.195312 46.238281 11.359375 46.238281 12.90625 C 46.238281 13.144531 46.265625 13.371094 46.320312 13.582031 C 46.132812 13.644531 45.953125 13.730469 45.789062 13.832031 C 45.226562 13.488281 44.542969 13.304688 43.742188 13.304688 C 43.128906 13.304688 42.617188 13.414062 42.191406 13.59375 C 41.714844 13.375 41.179688 13.335938 40.722656 13.335938 C 39.835938 13.335938 39.199219 13.429688 38.6875 13.628906 C 38.058594 13.34375 37.378906 13.304688 37.070312 13.304688 C 36.128906 13.304688 35.527344 13.621094 35.140625 14.042969 C 34.523438 13.410156 33.640625 13.335938 33.019531 13.335938 C 32.058594 13.335938 31.394531 13.441406 30.867188 13.679688 C 30.378906 13.441406 29.726562 13.289062 28.835938 13.289062 C 27.65625 13.289062 26.628906 13.566406 25.789062 14.066406 C 25.375 13.640625 24.6875 13.304688 23.546875 13.304688 C 23.183594 13.304688 22.867188 13.335938 22.585938 13.410156 L 22.75 12.179688 L 22.863281 11.320312 L 22.175781 10.789062 C 21.460938 10.242188 20.566406 10.160156 20.097656 10.160156 C 18.492188 10.160156 17.566406 11.019531 17.351562 12.714844 L 17.199219 13.867188 C 16.488281 13.480469 15.601562 13.273438 14.550781 13.273438 C 11.3125 13.273438 9.140625 15.457031 9.140625 18.714844 C 9.140625 21.421875 10.828125 23.035156 13.65625 23.035156 C 14.914062 23.035156 16.007812 22.738281 16.878906 22.191406 C 17.316406 22.707031 18.007812 23.007812 18.871094 23.007812 C 19.589844 23.007812 20.113281 22.933594 20.523438 22.785156 L 21.125 22.5625 C 21.5 22.832031 21.988281 23.007812 22.652344 23.007812 C 23.847656 23.007812 24.648438 22.757812 25.183594 22.40625 C 25.886719 22.824219 26.785156 23.035156 27.863281 23.035156 C 29.058594 23.035156 30.015625 22.726562 30.726562 22.25 C 31.246094 22.707031 32.007812 23.007812 33.066406 23.007812 C 33.796875 23.007812 34.433594 22.890625 34.984375 22.664062 C 35.578125 23.019531 36.242188 23.019531 36.496094 23.019531 C 36.734375 23.019531 36.953125 23.011719 37.164062 22.996094 C 37.117188 23.3125 37.085938 23.550781 37.085938 23.773438 C 37.085938 24.960938 37.871094 26.089844 39.625 26.164062 C 40.9375 26.21875 42.125 25.628906 42.125 25.628906 L 42.242188 24.734375 L 42.488281 22.894531 C 43.597656 22.792969 44.5625 22.441406 45.339844 21.886719 C 45.761719 22.535156 46.527344 23.007812 47.691406 23.007812 C 48.71875 23.007812 49.464844 22.875 50.039062 22.589844 C 50.105469 22.5625 50.15625 22.523438 50.214844 22.492188 C 50.796875 22.828125 51.515625 23.007812 52.367188 23.007812 C 52.976562 23.007812 53.535156 22.894531 54.023438 22.6875 C 54.40625 22.902344 54.871094 23.019531 55.398438 23.019531 C 58.773438 23.019531 59.035156 21.042969 59.035156 20.4375 C 59.035156 19.566406 58.609375 19.03125 58.246094 18.734375 Z M 58.246094 18.734375 "/>
<path style=" stroke:none;fill-rule:evenodd;fill:rgb(25.098039%,45.098039%,81.568627%);fill-opacity:1;" d="M 52.28125 18.714844 C 52.28125 17.132812 52.921875 16.304688 53.894531 16.304688 C 54.148438 16.304688 54.355469 16.320312 54.566406 16.414062 L 54.148438 19.605469 C 53.929688 19.847656 53.609375 19.972656 53.257812 19.972656 C 52.652344 19.972656 52.28125 19.703125 52.28125 18.714844 Z M 55.410156 21.523438 C 56.734375 21.523438 57.550781 21.171875 57.550781 20.4375 C 57.550781 20.199219 57.484375 20.039062 57.308594 19.894531 C 57.132812 19.941406 56.878906 19.960938 56.734375 19.960938 C 56.496094 19.960938 56.449219 19.847656 56.449219 19.6875 C 56.449219 19.496094 56.464844 19.207031 56.542969 18.648438 L 57.46875 11.980469 C 57.199219 11.773438 56.75 11.660156 56.304688 11.660156 C 55.503906 11.660156 55.171875 11.898438 55.042969 12.90625 L 54.738281 15.125 C 54.46875 14.917969 54.039062 14.820312 53.351562 14.820312 C 51.519531 14.820312 50.035156 16.257812 50.035156 19.015625 C 50.035156 20.851562 50.894531 21.507812 52.378906 21.507812 C 53.226562 21.507812 54.039062 21.203125 54.421875 20.34375 C 54.40625 20.421875 54.390625 20.566406 54.390625 20.597656 C 54.390625 21.265625 54.804688 21.523438 55.410156 21.523438 Z M 47.703125 21.507812 C 49.253906 21.507812 49.921875 21.171875 49.921875 20.421875 C 49.921875 20.214844 49.839844 20.023438 49.664062 19.894531 C 49.472656 19.941406 49.21875 19.960938 49.074219 19.960938 C 48.882812 19.960938 48.835938 19.847656 48.835938 19.734375 C 48.835938 19.527344 48.945312 19.015625 49.058594 18.285156 L 49.425781 15.792969 C 49.523438 15.136719 49.296875 14.835938 48.242188 14.835938 C 46.824219 14.835938 46.203125 15.09375 46.203125 15.792969 C 46.203125 16.003906 46.234375 16.207031 46.363281 16.367188 L 47.097656 16.351562 L 46.554688 19.464844 C 46.507812 19.796875 46.460938 20.246094 46.460938 20.515625 C 46.457031 21.203125 46.921875 21.507812 47.703125 21.507812 Z M 49.105469 11.691406 C 48.261719 11.691406 47.75 12.21875 47.75 12.90625 C 47.75 13.6875 48.277344 13.894531 48.867188 13.894531 C 49.699219 13.894531 50.191406 13.417969 50.191406 12.714844 C 50.191406 12.125 49.855469 11.691406 49.105469 11.691406 Z M 42.796875 16.335938 C 43.464844 16.335938 43.753906 16.71875 43.753906 17.722656 C 43.753906 19.320312 42.988281 20.023438 41.980469 20.023438 C 41.710938 20.023438 41.519531 20.007812 41.359375 19.960938 L 41.804688 16.785156 C 42.015625 16.511719 42.378906 16.335938 42.796875 16.335938 Z M 41.824219 21.425781 C 44.359375 21.425781 45.988281 19.960938 45.988281 17.453125 C 45.988281 15.730469 45.300781 14.804688 43.753906 14.804688 C 42.925781 14.804688 42.171875 15.042969 41.742188 16.160156 L 41.839844 15.570312 C 41.917969 15.042969 41.660156 14.835938 40.738281 14.835938 C 39.316406 14.835938 38.695312 15.09375 38.695312 15.792969 C 38.695312 16.003906 38.726562 16.207031 38.839844 16.367188 L 39.574219 16.351562 L 38.710938 22.863281 C 38.648438 23.292969 38.597656 23.597656 38.597656 23.773438 C 38.597656 24.378906 38.933594 24.664062 39.636719 24.664062 C 39.96875 24.664062 40.46875 24.648438 40.769531 24.535156 L 41.183594 21.410156 C 41.328125 21.425781 41.648438 21.425781 41.824219 21.425781 Z M 36.511719 21.523438 C 38.058594 21.523438 38.792969 21.1875 38.792969 20.4375 C 38.792969 20.230469 38.710938 20.023438 38.535156 19.894531 C 38.34375 19.941406 38.121094 19.960938 37.976562 19.960938 C 37.785156 19.960938 37.722656 19.863281 37.722656 19.75 C 37.722656 19.480469 37.769531 19.191406 37.800781 18.921875 L 38.3125 15.125 C 38.039062 14.917969 37.53125 14.804688 37.082031 14.804688 C 36.285156 14.804688 36.046875 15.058594 35.917969 16.066406 L 35.488281 19.257812 C 35.183594 19.75 34.707031 19.960938 34.261719 19.960938 C 33.828125 19.960938 33.652344 19.847656 33.652344 19.527344 C 33.652344 19.257812 33.734375 18.730469 33.8125 18.285156 L 34.210938 15.792969 C 34.324219 15.136719 34.082031 14.835938 33.03125 14.835938 C 31.613281 14.835938 30.988281 15.089844 30.988281 15.792969 C 30.988281 16 31.019531 16.207031 31.148438 16.367188 L 31.882812 16.351562 L 31.484375 18.523438 C 31.339844 19.273438 31.308594 19.558594 31.308594 20.003906 C 31.308594 21.042969 31.945312 21.507812 33.078125 21.507812 C 34.402344 21.507812 35.089844 21.058594 35.550781 20.214844 L 35.503906 20.535156 C 35.390625 21.28125 35.726562 21.523438 36.511719 21.523438 Z M 30.414062 16.542969 C 30.621094 16.382812 30.734375 16.191406 30.734375 15.855469 C 30.734375 15.25 30.367188 14.789062 28.851562 14.789062 C 26.441406 14.789062 24.910156 16.207031 24.910156 18.730469 C 24.910156 20.753906 25.945312 21.539062 27.878906 21.539062 C 29.679688 21.539062 30.414062 21.058594 30.414062 20.246094 C 30.414062 20.007812 30.304688 19.6875 30.082031 19.574219 C 29.476562 19.796875 28.914062 19.910156 28.4375 19.910156 C 27.589844 19.910156 27.273438 19.527344 27.273438 18.476562 C 27.273438 17.039062 27.925781 16.367188 29.074219 16.367188 C 29.664062 16.367188 30.046875 16.429688 30.414062 16.542969 Z M 30.414062 16.542969 "/>
<path style=" stroke:none;fill-rule:evenodd;fill:rgb(3.529412%,29.019608%,63.921569%);fill-opacity:1;" d="M 22.664062 21.507812 C 23.988281 21.507812 24.738281 21.1875 24.738281 20.4375 C 24.738281 20.230469 24.675781 20.007812 24.515625 19.894531 C 24.324219 19.941406 24.085938 19.960938 23.941406 19.960938 C 23.765625 19.960938 23.6875 19.847656 23.605469 19.71875 L 22.519531 17.757812 C 23.460938 16.464844 23.652344 16.386719 23.988281 16.386719 C 24.179688 16.386719 24.421875 16.386719 24.660156 16.402344 C 24.820312 16.222656 24.914062 16.003906 24.914062 15.667969 C 24.914062 15.09375 24.5625 14.804688 23.558594 14.804688 C 22.601562 14.804688 22.425781 14.964844 20.527344 17.597656 L 21.273438 11.980469 C 21.003906 11.773438 20.558594 11.664062 20.109375 11.664062 C 19.3125 11.664062 18.980469 11.898438 18.851562 12.90625 L 17.957031 19.703125 C 17.894531 20.132812 17.863281 20.4375 17.863281 20.613281 C 17.863281 21.21875 18.179688 21.507812 18.882812 21.507812 C 19.21875 21.507812 19.710938 21.488281 20.015625 21.378906 L 20.414062 18.378906 L 21.484375 20.566406 C 21.820312 21.28125 22.042969 21.507812 22.664062 21.507812 Z M 14.433594 16.320312 C 15.265625 16.320312 15.519531 16.785156 15.519531 17.722656 C 15.519531 19.175781 14.847656 20.023438 13.972656 20.023438 C 13.191406 20.023438 12.917969 19.589844 12.917969 18.632812 C 12.917969 17.308594 13.460938 16.320312 14.433594 16.320312 Z M 13.667969 21.539062 C 16.222656 21.539062 17.6875 20.039062 17.6875 17.628906 C 17.6875 15.921875 16.875 14.773438 14.5625 14.773438 C 12.089844 14.773438 10.652344 16.351562 10.652344 18.714844 C 10.652344 20.738281 11.847656 21.539062 13.667969 21.539062 Z M 13.667969 21.539062 "/>
</g>
</svg>
