<?xml version="1.0" standalone="no"?>
<!DOCTYPE svg PUBLIC "-//W3C//DTD SVG 20010904//EN"
 "http://www.w3.org/TR/2001/REC-SVG-20010904/DTD/svg10.dtd">
<svg version="1.0" xmlns="http://www.w3.org/2000/svg"
 width="75.000000pt" height="42.000000pt" viewBox="0 0 75.000000 42.000000"
 preserveAspectRatio="xMidYMid meet">

<g transform="translate(0.000000,42.000000) scale(0.100000,-0.100000)"
fill="#000000" stroke="none">
<path d="M135 297 c-5 -19 -11 -23 -36 -19 -62 9 -109 -61 -75 -113 16 -24 19
-25 159 -24 241 0 228 1 234 -21 8 -28 52 -38 69 -15 7 10 15 23 17 29 2 7 39
10 108 8 88 -3 108 -1 119 13 10 12 11 22 4 33 -5 9 -7 40 -3 67 8 61 6 65
-33 65 -21 0 -31 -6 -35 -20 -7 -26 -29 -26 -36 1 -7 27 -57 23 -72 -6 -9 -19
-19 -20 -160 -19 -192 2 -182 1 -188 24 -8 30 -65 28 -72 -3z m49 -34 l-7 -38
22 19 c17 16 24 17 34 7 9 -10 8 -14 -5 -22 -22 -12 -23 -23 -2 -43 14 -15 14
-17 -2 -23 -10 -4 -22 0 -29 10 -15 21 -25 22 -25 2 0 -8 -7 -15 -15 -15 -9 0
-15 9 -15 22 l0 22 -16 -22 c-34 -49 -106 -15 -85 41 16 42 59 49 91 15 l20
-22 0 35 c0 39 6 49 27 49 11 0 12 -9 7 -37z m426 28 c0 -14 -18 -23 -30 -16
-6 4 -8 11 -5 16 8 12 35 12 35 0z m96 -51 c-5 -41 -4 -60 4 -60 6 0 9 -4 5
-9 -3 -5 -40 -9 -81 -8 l-77 2 -1 42 c-1 27 4 45 12 48 24 9 33 -5 26 -41 -4
-22 -2 -34 5 -34 6 0 11 10 11 22 0 27 27 58 52 58 11 0 18 7 18 20 0 12 7 20
16 20 14 0 16 -8 10 -60z m-334 -24 c-5 -49 21 -45 28 5 l5 33 64 1 c50 0 66
-4 75 -18 15 -23 -11 -71 -42 -75 -14 -2 -24 -13 -28 -28 -8 -29 -28 -27 -32
4 -3 22 -19 27 -74 23 -17 -1 -28 3 -29 11 -1 7 -2 22 -2 33 -2 22 -7 25 -37
25 -15 0 -20 -7 -20 -25 0 -19 5 -25 21 -25 11 0 17 -4 14 -10 -9 -14 -48 -13
-63 2 -18 18 -15 45 7 67 14 14 32 18 67 17 l49 -1 -3 -39z"/>
<path d="M70 204 c0 -31 23 -28 28 4 2 15 -2 22 -12 22 -11 0 -16 -9 -16 -26z"/>
<path d="M647 223 c-4 -3 -7 -15 -7 -25 0 -26 24 -17 28 10 3 21 -8 29 -21 15z"/>
<path d="M430 210 c0 -16 5 -30 10 -30 6 0 10 14 10 30 0 17 -4 30 -10 30 -5
0 -10 -13 -10 -30z"/>
<path d="M485 209 c-4 -11 -4 -24 0 -27 9 -9 36 28 29 39 -9 15 -22 10 -29
-12z"/>
</g>
</svg>
