<?xml version="1.0" encoding="utf-8"?>
<!-- Generator: Adobe Illustrator 16.0.0, SVG Export Plug-In . SVG Version: 6.00 Build 0)  -->
<!DOCTYPE svg PUBLIC "-//W3C//DTD SVG 1.1//EN" "http://www.w3.org/Graphics/SVG/1.1/DTD/svg11.dtd">
<svg version="1.1" id="Layer_1" xmlns="http://www.w3.org/2000/svg" xmlns:xlink="http://www.w3.org/1999/xlink" x="0px" y="0px"
	 width="300px" height="150px" viewBox="0 0 300 150" enable-background="new 0 0 300 150" xml:space="preserve">
<rect fill-rule="evenodd" clip-rule="evenodd" fill="#F749B8" width="300" height="150"/>
<path fill-rule="evenodd" clip-rule="evenodd" fill="#FFFFFF" d="M249.63,80.29l-0.819-0.67l3.799-27.39l0.511-3.71l-2.97-2.28
	c-3.061-2.34-6.891-2.69-8.9-2.69c-6.891,0-10.85,3.68-11.779,10.95l-0.351,2.59c-2.899-0.06-5.78,0.51-8.431,1.68
	c0.5-1.3,0.791-2.74,0.791-4.28c0-6.36-4.561-10.8-11.08-10.8c-6.971,0-12.23,4.99-12.23,11.62c0,1.02,0.109,2,0.34,2.9
	c-0.8,0.27-1.57,0.63-2.279,1.07c-2.41-1.47-5.34-2.26-8.771-2.26c-2.62,0-4.81,0.47-6.64,1.24c-2.041-0.94-4.33-1.11-6.291-1.11
	c-3.809,0-6.529,0.4-8.719,1.26c-2.711-1.22-5.61-1.39-6.931-1.39c-4.04,0-6.62,1.36-8.28,3.16c-2.64-2.7-6.419-3.03-9.09-3.03
	c-4.11,0-6.97,0.46-9.23,1.47c-2.08-1.01-4.88-1.67-8.69-1.67c-5.06,0-9.47,1.19-13.07,3.34c-1.77-1.83-4.71-3.27-9.61-3.27
	c-1.56,0-2.9,0.14-4.12,0.46l0.71-5.28l0.49-3.69l-2.95-2.27c-3.06-2.34-6.89-2.69-8.9-2.69c-6.89,0-10.86,3.68-11.78,10.95
	l-0.65,4.93c-3.05-1.66-6.85-2.55-11.35-2.55c-13.87,0-23.19,9.37-23.19,23.32c0,11.6,7.24,18.53,19.36,18.53
	c5.39,0,10.08-1.28,13.81-3.631c1.88,2.221,4.84,3.5,8.53,3.5c3.08,0,5.33-0.31,7.08-0.949l2.59-0.95
	c1.61,1.159,3.7,1.899,6.54,1.899c5.13,0,8.56-1.07,10.85-2.57c3.01,1.781,6.86,2.701,11.49,2.701c5.11,0,9.22-1.33,12.27-3.381
	c2.23,1.961,5.48,3.25,10.02,3.25c3.13,0,5.86-0.49,8.22-1.47c2.55,1.53,5.39,1.53,6.48,1.53c1.02,0,1.96-0.04,2.859-0.11
	c-0.199,1.36-0.33,2.39-0.33,3.33c0,5.101,3.371,9.931,10.881,10.25c5.63,0.24,10.709-2.29,10.709-2.29l0.511-3.84l1.05-7.88
	c4.75-0.431,8.891-1.94,12.23-4.32c1.81,2.78,5.09,4.8,10.07,4.8c4.399,0,7.6-0.57,10.069-1.779c0.271-0.131,0.5-0.291,0.75-0.43
	c2.49,1.439,5.58,2.209,9.22,2.209c2.61,0,5-0.479,7.1-1.369c1.641,0.92,3.641,1.43,5.891,1.43c14.471,0,15.59-8.48,15.59-11.07
	C253.01,83.85,251.18,81.561,249.63,80.29z"/>
<path fill-rule="evenodd" clip-rule="evenodd" fill="#4073D0" d="M224.07,80.2c0-6.77,2.74-10.32,6.91-10.32
	c1.09,0,1.979,0.06,2.869,0.47l-1.779,13.679c-0.95,1.031-2.32,1.57-3.83,1.57C225.65,85.6,224.07,84.439,224.07,80.2z
	 M237.48,92.24c5.67,0,9.16-1.51,9.16-4.65c0-1.029-0.281-1.71-1.031-2.33c-0.75,0.211-1.84,0.28-2.459,0.28
	c-1.021,0-1.23-0.479-1.23-1.17c0-0.82,0.07-2.05,0.41-4.44l3.97-28.58c-1.159-0.89-3.079-1.37-5-1.37c-3.42,0-4.85,1.02-5.399,5.33
	l-1.301,9.51c-1.16-0.89-3.01-1.3-5.949-1.3c-7.86,0-14.221,6.15-14.221,17.98c0,7.87,3.69,10.67,10.051,10.67
	c3.629,0,7.109-1.3,8.76-4.99c-0.07,0.34-0.141,0.961-0.141,1.09C233.1,91.141,234.88,92.24,237.48,92.24z M204.439,92.17
	c6.641,0,9.511-1.439,9.511-4.65c0-0.89-0.351-1.709-1.101-2.26c-0.82,0.211-1.91,0.28-2.529,0.28c-0.82,0-1.03-0.479-1.03-0.96
	c0-0.891,0.479-3.08,0.96-6.221l1.58-10.669c0.41-2.81-0.551-4.11-5.07-4.11c-6.08,0-8.75,1.1-8.75,4.11
	c0,0.89,0.141,1.77,0.69,2.46l3.14-0.07l-2.32,13.34c-0.209,1.43-0.41,3.35-0.41,4.51C199.109,90.87,201.09,92.17,204.439,92.17z
	 M210.46,50.11c-3.62,0-5.81,2.26-5.81,5.2c0,3.35,2.25,4.24,4.779,4.24c3.561,0,5.68-2.05,5.68-5.06
	C215.109,51.96,213.67,50.11,210.46,50.11z M183.41,70.01c2.869,0,4.1,1.64,4.1,5.95c0,6.84-3.279,9.851-7.59,9.851
	c-1.16,0-1.98-0.07-2.66-0.271l1.91-13.61C180.061,70.76,181.63,70.01,183.41,70.01z M179.24,91.83c10.869,0,17.85-6.29,17.85-17.03
	c0-7.39-2.939-11.35-9.58-11.35c-3.55,0-6.77,1.02-8.609,5.81l0.41-2.53c0.34-2.26-0.761-3.15-4.721-3.15
	c-6.09,0-8.75,1.1-8.75,4.11c0,0.89,0.131,1.77,0.61,2.46l3.149-0.07l-3.699,27.9c-0.271,1.85-0.48,3.149-0.48,3.899
	c0,2.601,1.439,3.83,4.45,3.83c1.43,0,3.56-0.069,4.851-0.55l1.779-13.4C177.12,91.83,178.49,91.83,179.24,91.83z M156.471,92.24
	c6.629,0,9.779-1.44,9.779-4.65c0-0.89-0.34-1.779-1.1-2.33c-0.82,0.211-1.771,0.28-2.391,0.28c-0.82,0-1.09-0.42-1.09-0.89
	c0-1.17,0.2-2.4,0.34-3.561l2.19-16.27c-1.171-0.89-3.351-1.37-5.271-1.37c-3.42,0-4.439,1.09-4.99,5.4l-1.85,13.679
	c-1.3,2.121-3.35,3.011-5.26,3.011c-1.85,0-2.6-0.479-2.6-1.851c0-1.16,0.34-3.42,0.68-5.33l1.71-10.669
	c0.48-2.81-0.55-4.11-5.06-4.11c-6.08,0-8.75,1.1-8.75,4.11c0,0.89,0.14,1.77,0.68,2.46l3.15-0.07l-1.71,9.3
	c-0.62,3.22-0.75,4.45-0.75,6.36c0,4.449,2.73,6.43,7.59,6.43c5.67,0,8.61-1.92,10.589-5.54L152.16,88
	C151.68,91.21,153.12,92.24,156.471,92.24z M130.35,70.9c0.89-0.68,1.37-1.5,1.37-2.94c0-2.6-1.57-4.58-8.07-4.58
	c-10.33,0-16.89,6.08-16.89,16.89c0,8.681,4.44,12.041,12.72,12.041c7.72,0,10.87-2.061,10.87-5.541c0-1.029-0.48-2.399-1.43-2.879
	c-2.6,0.959-5,1.439-7.05,1.439c-3.62,0-4.99-1.641-4.99-6.15c0-6.16,2.8-9.03,7.73-9.03C127.14,70.15,128.78,70.42,130.35,70.9z"/>
<path fill-rule="evenodd" clip-rule="evenodd" fill="#094AA3" d="M97.13,92.17c5.68,0,8.89-1.37,8.89-4.58
	c0-0.89-0.27-1.85-0.95-2.33c-0.82,0.211-1.85,0.28-2.46,0.28c-0.76,0-1.1-0.479-1.44-1.03l-4.65-8.41
	c4.03-5.54,4.85-5.879,6.29-5.879c0.82,0,1.85,0,2.87,0.07c0.69-0.76,1.1-1.71,1.1-3.15c0-2.46-1.51-3.69-5.82-3.69
	c-4.1,0-4.85,0.68-12.99,11.97l3.21-24.07c-1.16-0.89-3.07-1.37-4.99-1.37c-3.42,0-4.85,1.02-5.4,5.33l-3.83,29.129
	c-0.27,1.851-0.41,3.15-0.41,3.9c0,2.6,1.37,3.83,4.38,3.83c1.43,0,3.55-0.07,4.85-0.55l1.71-12.86l4.58,9.381
	C93.51,91.21,94.47,92.17,97.13,92.17z M61.86,69.94c3.56,0,4.65,1.99,4.65,6.02c0,6.22-2.87,9.851-6.63,9.851
	c-3.35,0-4.51-1.851-4.51-5.951C55.37,74.18,57.69,69.94,61.86,69.94z M58.58,92.311c10.94,0,17.23-6.431,17.23-16.761
	c0-7.32-3.49-12.24-13.4-12.24c-10.6,0-16.76,6.77-16.76,16.89C45.65,88.88,50.78,92.311,58.58,92.311z"/>
</svg>
