<?xml version="1.0" encoding="UTF-8"?>
<svg xmlns="http://www.w3.org/2000/svg" xmlns:xlink="http://www.w3.org/1999/xlink" width="55px" height="45px" viewBox="0 0 55 45" version="1.1">
<g id="surface1">
<path style=" stroke:none;fill-rule:nonzero;fill:rgb(72.54902%,78.431373%,81.568627%);fill-opacity:1;" d="M 18.917969 29.136719 C 17.589844 28.3125 16.785156 27.238281 16.785156 26.054688 L 16.785156 32.21875 C 16.785156 34.074219 18.78125 35.6875 21.695312 36.46875 L 21.695312 30.300781 C 20.628906 30.015625 19.683594 29.621094 18.917969 29.136719 Z M 18.917969 29.136719 "/>
<path style=" stroke:none;fill-rule:nonzero;fill:rgb(72.54902%,78.431373%,81.568627%);fill-opacity:1;" d="M 19.53125 22.628906 C 19.289062 22.503906 19.058594 22.378906 18.84375 22.234375 C 17.566406 21.410156 16.792969 20.351562 16.792969 19.195312 L 16.792969 25.265625 C 16.792969 25.398438 16.808594 25.523438 16.824219 25.660156 C 17.011719 26.878906 18.050781 27.964844 19.625 28.742188 C 20.242188 29.046875 20.933594 29.308594 21.695312 29.515625 L 21.695312 23.4375 C 20.898438 23.230469 20.167969 22.953125 19.53125 22.628906 Z M 19.53125 22.628906 "/>
<path style=" stroke:none;fill-rule:nonzero;fill:rgb(55.686275%,64.705882%,68.627451%);fill-opacity:1;" d="M 25.679688 7.5 C 20.765625 7.5 16.785156 9.625 16.785156 12.25 C 16.785156 13.425781 17.589844 14.5 18.910156 15.332031 C 19.128906 15.46875 19.363281 15.601562 19.613281 15.726562 C 20.226562 16.03125 20.925781 16.292969 21.6875 16.5 L 23.394531 14.609375 L 24.183594 13.730469 L 25.511719 12.25 L 29.398438 7.929688 C 28.265625 7.652344 27.011719 7.5 25.679688 7.5 Z M 25.679688 7.5 "/>
<path style=" stroke:none;fill-rule:nonzero;fill:rgb(72.54902%,78.431373%,81.568627%);fill-opacity:1;" d="M 19.621094 15.726562 C 19.371094 15.601562 19.136719 15.476562 18.917969 15.332031 C 17.589844 14.5 16.785156 13.425781 16.785156 12.25 L 16.785156 18.410156 C 16.785156 18.542969 16.800781 18.667969 16.816406 18.800781 C 16.996094 19.996094 18 21.0625 19.523438 21.839844 C 19.800781 21.984375 20.085938 22.109375 20.394531 22.234375 C 20.804688 22.398438 21.234375 22.539062 21.6875 22.65625 L 21.6875 16.488281 C 20.933594 16.292969 20.234375 16.03125 19.621094 15.726562 Z M 19.621094 15.726562 "/>
<path style=" stroke:none;fill-rule:nonzero;fill:rgb(67.058824%,72.156863%,75.294118%);fill-opacity:1;" d="M 27.199219 32.230469 C 27.113281 31.753906 27.0625 31.261719 27.054688 30.757812 C 26.609375 30.796875 26.148438 30.8125 25.675781 30.8125 C 24.945312 30.8125 24.234375 30.769531 23.554688 30.679688 C 22.898438 30.589844 22.277344 30.472656 21.6875 30.3125 L 21.6875 36.476562 C 21.78125 36.503906 21.875 36.53125 21.980469 36.550781 C 23.101562 36.828125 24.359375 36.980469 25.675781 36.980469 C 27.113281 36.980469 28.472656 36.792969 29.675781 36.46875 C 23.15625 37.640625 17.101562 32.105469 16.148438 24.105469 C 15.191406 16.105469 19.703125 8.671875 26.222656 7.5 Z M 27.199219 32.230469 "/>
<path style=" stroke:none;fill-rule:nonzero;fill:rgb(50.588235%,59.607843%,62.352941%);fill-opacity:1;" d="M 29.65625 8 C 29.566406 7.976562 29.488281 7.957031 29.398438 7.9375 L 25.511719 12.25 L 24.183594 13.730469 L 23.394531 14.609375 L 21.695312 16.5 C 22.890625 16.820312 24.25 17 25.679688 17 C 26.222656 17 26.746094 16.972656 27.257812 16.929688 C 28.976562 16.769531 30.523438 16.335938 31.75 15.726562 C 32 15.601562 32.234375 15.476562 32.453125 15.332031 C 33.773438 14.5 34.570312 13.425781 34.570312 12.25 C 34.570312 10.386719 32.570312 8.78125 29.65625 8 Z M 29.65625 8 "/>
<path style=" stroke:none;fill-rule:nonzero;fill:rgb(67.058824%,72.156863%,75.294118%);fill-opacity:1;" d="M 32.445312 15.332031 C 32.226562 15.46875 31.992188 15.601562 31.742188 15.726562 C 30.515625 16.335938 28.976562 16.769531 27.25 16.929688 C 26.742188 16.972656 26.214844 17 25.675781 17 C 24.242188 17 22.882812 16.820312 21.6875 16.5 L 21.6875 22.664062 C 22.855469 22.980469 24.175781 23.160156 25.570312 23.167969 L 25.675781 23.167969 C 27.652344 23.167969 29.480469 22.816406 30.953125 22.234375 C 31.261719 22.109375 31.554688 21.984375 31.824219 21.839844 C 33.34375 21.0625 34.351562 19.996094 34.53125 18.800781 C 34.554688 18.675781 34.5625 18.542969 34.5625 18.410156 L 34.5625 12.25 C 34.570312 13.425781 33.773438 14.5 32.445312 15.332031 Z M 32.445312 15.332031 "/>
<path style=" stroke:none;fill-rule:nonzero;fill:rgb(50.588235%,59.607843%,62.352941%);fill-opacity:1;" d="M 34.539062 18.800781 C 34.359375 19.996094 33.355469 21.0625 31.832031 21.839844 C 31.554688 21.984375 31.269531 22.109375 30.960938 22.234375 C 29.488281 22.816406 27.660156 23.167969 25.679688 23.167969 L 25.578125 23.167969 C 24.183594 23.160156 22.863281 22.980469 21.695312 22.664062 C 21.242188 22.539062 20.808594 22.40625 20.402344 22.246094 C 20.09375 22.117188 19.800781 21.992188 19.53125 21.851562 C 18.003906 21.0625 17.003906 19.996094 16.824219 18.800781 C 16.800781 18.675781 16.792969 18.542969 16.792969 18.410156 L 16.792969 19.195312 C 16.792969 20.351562 17.566406 21.410156 18.84375 22.234375 C 19.058594 22.371094 19.289062 22.503906 19.53125 22.628906 C 20.167969 22.953125 20.898438 23.230469 21.695312 23.445312 C 22.804688 23.742188 24.054688 23.921875 25.367188 23.949219 L 25.679688 23.949219 C 28.070312 23.949219 30.230469 23.445312 31.832031 22.628906 C 32.070312 22.503906 32.304688 22.378906 32.515625 22.234375 C 33.796875 21.410156 34.570312 20.351562 34.570312 19.195312 L 34.570312 18.410156 C 34.570312 18.542969 34.5625 18.675781 34.539062 18.800781 Z M 34.539062 18.800781 "/>
<path style=" stroke:none;fill-rule:nonzero;fill:rgb(50.588235%,59.607843%,62.352941%);fill-opacity:1;" d="M 34.539062 25.660156 C 34.363281 26.796875 33.445312 27.820312 32.035156 28.589844 C 31.941406 28.644531 31.839844 28.699219 31.734375 28.742188 C 31.515625 28.851562 31.296875 28.949219 31.058594 29.046875 C 30.152344 29.414062 29.105469 29.691406 27.976562 29.855469 C 27.683594 29.898438 27.382812 29.925781 27.078125 29.953125 C 26.617188 29.988281 26.148438 30.015625 25.675781 30.015625 C 25.015625 30.015625 24.375 29.980469 23.761719 29.90625 C 23.03125 29.820312 22.335938 29.691406 21.6875 29.515625 C 20.925781 29.308594 20.234375 29.046875 19.621094 28.742188 C 18.050781 27.964844 17.003906 26.878906 16.824219 25.660156 C 16.800781 25.535156 16.792969 25.398438 16.792969 25.265625 L 16.792969 26.054688 C 16.792969 27.226562 17.597656 28.304688 18.925781 29.136719 C 19.691406 29.613281 20.636719 30.015625 21.699219 30.300781 C 22.292969 30.464844 22.914062 30.582031 23.570312 30.671875 C 24.25 30.757812 24.957031 30.804688 25.6875 30.804688 C 26.15625 30.804688 26.617188 30.785156 27.070312 30.75 C 27.367188 30.722656 27.660156 30.695312 27.945312 30.652344 C 29.09375 30.492188 30.152344 30.210938 31.070312 29.835938 C 31.574219 29.628906 32.042969 29.398438 32.453125 29.136719 C 32.515625 29.09375 32.582031 29.046875 32.648438 29.011719 C 33.855469 28.207031 34.578125 27.175781 34.578125 26.054688 L 34.578125 25.273438 C 34.578125 25.320312 34.570312 25.355469 34.570312 25.398438 C 34.5625 25.488281 34.554688 25.578125 34.539062 25.660156 Z M 34.539062 25.660156 "/>
<path style=" stroke:none;fill-rule:nonzero;fill:rgb(67.058824%,72.156863%,75.294118%);fill-opacity:1;" d="M 32.515625 22.234375 C 29.835938 26.433594 25.261719 28.046875 21.167969 26.238281 C 17.078125 24.429688 14.394531 19.605469 14.511719 14.269531 C 14.628906 8.9375 17.519531 4.296875 21.683594 2.757812 C 25.84375 1.21875 30.34375 3.132812 32.839844 7.5 C 31.238281 8.316406 29.078125 8.816406 26.6875 8.816406 L 25.367188 8.816406 C 24.046875 8.789062 22.804688 8.613281 21.695312 8.316406 L 21.695312 14.394531 C 22.34375 14.5625 23.039062 14.699219 23.769531 14.789062 C 24.382812 14.859375 25.023438 14.894531 25.679688 14.894531 C 26.15625 14.894531 26.632812 14.875 27.082031 14.832031 C 27.390625 14.804688 27.691406 14.769531 27.980469 14.734375 C 29.113281 14.570312 30.160156 14.292969 31.0625 13.925781 C 31.296875 13.828125 31.523438 13.730469 31.742188 13.621094 C 31.84375 13.566406 31.941406 13.523438 32.042969 13.46875 C 33.453125 12.699219 34.371094 11.675781 34.546875 10.539062 C 34.5625 10.449219 34.570312 10.359375 34.578125 10.269531 C 34.578125 10.226562 34.585938 10.1875 34.585938 10.144531 L 34.585938 4.066406 C 34.570312 5.222656 33.804688 6.28125 32.515625 7.105469 Z M 32.515625 22.234375 "/>
<path style=" stroke:none;fill-rule:nonzero;fill:rgb(89.803922%,91.372549%,92.54902%);fill-opacity:1;" d="M 38.214844 30.652344 C 38.214844 34.433594 35.714844 37.5 32.632812 37.5 C 29.550781 37.5 27.054688 34.433594 27.054688 30.652344 C 27.054688 26.871094 29.550781 23.804688 32.632812 23.804688 C 35.714844 23.804688 38.214844 26.871094 38.214844 30.652344 Z M 38.214844 30.652344 "/>
<path style=" stroke:none;fill-rule:nonzero;fill:rgb(23.529412%,58.039216%,26.27451%);fill-opacity:1;" d="M 32.632812 25.21875 C 35.183594 25.21875 37.257812 27.710938 37.332031 30.824219 L 37.332031 30.652344 C 37.332031 27.460938 35.226562 24.878906 32.628906 24.878906 C 30.027344 24.878906 27.921875 27.460938 27.921875 30.652344 L 27.921875 30.824219 C 28.011719 27.722656 30.085938 25.21875 32.632812 25.21875 Z M 32.632812 25.21875 "/>
<path style=" stroke:none;fill-rule:nonzero;fill:rgb(27.058824%,67.45098%,30.588235%);fill-opacity:1;" d="M 32.632812 36.425781 C 35.183594 36.425781 37.257812 33.933594 37.332031 30.824219 C 37.257812 27.710938 35.183594 25.21875 32.632812 25.21875 C 30.085938 25.21875 28.011719 27.710938 27.9375 30.824219 C 28.011719 33.933594 30.085938 36.425781 32.632812 36.425781 Z M 32.632812 36.425781 "/>
<path style=" stroke:none;fill-rule:nonzero;fill:rgb(23.529412%,58.039216%,26.27451%);fill-opacity:1;" d="M 31.058594 30.445312 L 31.058594 33.671875 L 35.035156 30.9375 L 31.058594 28.207031 Z M 31.058594 30.445312 "/>
<path style=" stroke:none;fill-rule:nonzero;fill:rgb(100%,100%,100%);fill-opacity:1;" d="M 31.058594 30.160156 L 31.058594 33.394531 L 35.035156 30.652344 L 31.058594 27.917969 Z M 31.058594 30.160156 "/>
</g>
</svg>
