<?xml version="1.0" standalone="no"?>
<!DOCTYPE svg PUBLIC "-//W3C//DTD SVG 20010904//EN"
 "http://www.w3.org/TR/2001/REC-SVG-20010904/DTD/svg10.dtd">
<svg version="1.0" xmlns="http://www.w3.org/2000/svg"
 width="75.000000pt" height="56.000000pt" viewBox="0 0 75.000000 56.000000"
 preserveAspectRatio="xMidYMid meet">

<g transform="translate(0.000000,56.000000) scale(0.100000,-0.100000)"
fill="#000000" stroke="none">
<path d="M425 548 c-9 -23 -2 -83 10 -83 14 0 19 75 6 88 -7 7 -12 5 -16 -5z"/>
<path d="M347 488 c-3 -24 -9 -58 -12 -75 -5 -22 -3 -33 4 -33 7 0 11 -31 11
-93 0 -68 4 -99 16 -115 8 -12 20 -20 25 -17 12 8 12 75 -1 75 -6 0 -10 32
-10 75 0 43 4 75 10 75 6 0 10 16 10 35 0 19 -4 35 -10 35 -5 0 -10 18 -10 40
0 56 -26 54 -33 -2z"/>
<path d="M113 493 c-10 -4 -13 -38 -13 -126 0 -162 20 -228 62 -212 27 11 40
57 45 167 5 96 4 108 -11 108 -13 0 -16 -11 -16 -64 0 -89 -9 -128 -29 -124
-13 3 -17 24 -21 129 -4 94 -8 125 -17 122z"/>
<path d="M233 443 c-10 -4 -13 -56 -13 -219 0 -184 2 -214 15 -214 12 0 15 15
15 74 0 68 2 74 19 69 33 -8 55 48 55 142 0 93 -22 150 -54 142 -11 -3 -20 -2
-22 3 -2 4 -9 5 -15 3z m67 -138 c0 -52 -8 -75 -25 -75 -25 0 -35 83 -14 121
17 32 39 5 39 -46z"/>
<path d="M505 440 c-3 -5 -12 -7 -20 -3 -13 4 -15 -16 -15 -136 0 -87 4 -141
10 -141 6 0 10 33 10 79 0 97 8 141 26 141 11 0 14 -23 14 -110 0 -91 3 -110
15 -110 12 0 15 18 15 98 0 98 8 130 29 118 7 -5 11 -46 11 -112 0 -89 2 -104
16 -104 14 0 16 15 12 128 -5 138 -11 162 -38 162 -10 0 -21 -8 -25 -17 -6
-17 -7 -17 -16 0 -11 18 -34 23 -44 7z"/>
<path d="M663 423 c-25 -39 -25 -194 0 -240 10 -18 23 -33 31 -33 22 0 46 35
46 69 l0 33 -19 -23 c-16 -20 -21 -21 -35 -10 -23 19 -21 27 24 67 37 33 40
40 34 73 -15 92 -47 117 -81 64z m55 -55 c3 -15 -44 -57 -52 -47 -2 2 1 19 6
37 10 36 40 42 46 10z"/>
<path d="M433 423 c-10 -3 -13 -40 -13 -134 0 -108 2 -129 15 -129 13 0 15 22
15 135 0 74 -1 135 -2 134 -2 0 -9 -3 -15 -6z"/>
</g>
</svg>
